<?xml version="1.0" encoding="utf-8" standalone="no"?>
<!DOCTYPE svg PUBLIC "-//W3C//DTD SVG 1.1//EN"
  "http://www.w3.org/Graphics/SVG/1.1/DTD/svg11.dtd">
<svg xmlns:xlink="http://www.w3.org/1999/xlink" width="395.328125pt" height="277.314375pt" viewBox="0 0 395.328125 277.314375" xmlns="http://www.w3.org/2000/svg" version="1.1">
 <metadata>
  <rdf:RDF xmlns:dc="http://purl.org/dc/elements/1.1/" xmlns:cc="http://creativecommons.org/ns#" xmlns:rdf="http://www.w3.org/1999/02/22-rdf-syntax-ns#">
   <cc:Work>
    <dc:type rdf:resource="http://purl.org/dc/dcmitype/StillImage"/>
    <dc:date>2022-02-03T13:07:48.330504</dc:date>
    <dc:format>image/svg+xml</dc:format>
    <dc:creator>
     <cc:Agent>
      <dc:title>Matplotlib v3.5.1, https://matplotlib.org/</dc:title>
     </cc:Agent>
    </dc:creator>
   </cc:Work>
  </rdf:RDF>
 </metadata>
 <defs>
  <style type="text/css">*{stroke-linejoin: round; stroke-linecap: butt}</style>
 </defs>
 <g id="figure_1">
  <g id="patch_1">
   <path d="M 0 277.314375 
L 395.328125 277.314375 
L 395.328125 0 
L 0 0 
L 0 277.314375 
z
" style="fill: none"/>
  </g>
  <g id="axes_1">
   <g id="patch_2">
    <path d="M 53.328125 239.758125 
L 388.128125 239.758125 
L 388.128125 22.318125 
L 53.328125 22.318125 
z
" style="fill: #ffffff"/>
   </g>
   <g id="matplotlib.axis_1">
    <g id="xtick_1">
     <g id="line2d_1">
      <defs>
       <path id="m87d8f7077f" d="M 0 0 
L 0 3.5 
" style="stroke: #000000; stroke-width: 0.8"/>
      </defs>
      <g>
       <use xlink:href="#m87d8f7077f" x="53.886923" y="239.758125" style="stroke: #000000; stroke-width: 0.8"/>
      </g>
     </g>
     <g id="text_1">
      <!-- 2010 -->
      <g transform="translate(41.161923 254.356562)scale(0.1 -0.1)">
       <defs>
        <path id="DejaVuSans-32" d="M 1228 531 
L 3431 531 
L 3431 0 
L 469 0 
L 469 531 
Q 828 903 1448 1529 
Q 2069 2156 2228 2338 
Q 2531 2678 2651 2914 
Q 2772 3150 2772 3378 
Q 2772 3750 2511 3984 
Q 2250 4219 1831 4219 
Q 1534 4219 1204 4116 
Q 875 4013 500 3803 
L 500 4441 
Q 881 4594 1212 4672 
Q 1544 4750 1819 4750 
Q 2544 4750 2975 4387 
Q 3406 4025 3406 3419 
Q 3406 3131 3298 2873 
Q 3191 2616 2906 2266 
Q 2828 2175 2409 1742 
Q 1991 1309 1228 531 
z
" transform="scale(0.015625)"/>
        <path id="DejaVuSans-30" d="M 2034 4250 
Q 1547 4250 1301 3770 
Q 1056 3291 1056 2328 
Q 1056 1369 1301 889 
Q 1547 409 2034 409 
Q 2525 409 2770 889 
Q 3016 1369 3016 2328 
Q 3016 3291 2770 3770 
Q 2525 4250 2034 4250 
z
M 2034 4750 
Q 2819 4750 3233 4129 
Q 3647 3509 3647 2328 
Q 3647 1150 3233 529 
Q 2819 -91 2034 -91 
Q 1250 -91 836 529 
Q 422 1150 422 2328 
Q 422 3509 836 4129 
Q 1250 4750 2034 4750 
z
" transform="scale(0.015625)"/>
        <path id="DejaVuSans-31" d="M 794 531 
L 1825 531 
L 1825 4091 
L 703 3866 
L 703 4441 
L 1819 4666 
L 2450 4666 
L 2450 531 
L 3481 531 
L 3481 0 
L 794 0 
L 794 531 
z
" transform="scale(0.015625)"/>
       </defs>
       <use xlink:href="#DejaVuSans-32"/>
       <use xlink:href="#DejaVuSans-30" x="63.623047"/>
       <use xlink:href="#DejaVuSans-31" x="127.246094"/>
       <use xlink:href="#DejaVuSans-30" x="190.869141"/>
      </g>
     </g>
    </g>
    <g id="xtick_2">
     <g id="line2d_2">
      <g>
       <use xlink:href="#m87d8f7077f" x="106.863903" y="239.758125" style="stroke: #000000; stroke-width: 0.8"/>
      </g>
     </g>
     <g id="text_2">
      <!-- 2012 -->
      <g transform="translate(94.138903 254.356562)scale(0.1 -0.1)">
       <use xlink:href="#DejaVuSans-32"/>
       <use xlink:href="#DejaVuSans-30" x="63.623047"/>
       <use xlink:href="#DejaVuSans-31" x="127.246094"/>
       <use xlink:href="#DejaVuSans-32" x="190.869141"/>
      </g>
     </g>
    </g>
    <g id="xtick_3">
     <g id="line2d_3">
      <g>
       <use xlink:href="#m87d8f7077f" x="159.913455" y="239.758125" style="stroke: #000000; stroke-width: 0.8"/>
      </g>
     </g>
     <g id="text_3">
      <!-- 2014 -->
      <g transform="translate(147.188455 254.356562)scale(0.1 -0.1)">
       <defs>
        <path id="DejaVuSans-34" d="M 2419 4116 
L 825 1625 
L 2419 1625 
L 2419 4116 
z
M 2253 4666 
L 3047 4666 
L 3047 1625 
L 3713 1625 
L 3713 1100 
L 3047 1100 
L 3047 0 
L 2419 0 
L 2419 1100 
L 313 1100 
L 313 1709 
L 2253 4666 
z
" transform="scale(0.015625)"/>
       </defs>
       <use xlink:href="#DejaVuSans-32"/>
       <use xlink:href="#DejaVuSans-30" x="63.623047"/>
       <use xlink:href="#DejaVuSans-31" x="127.246094"/>
       <use xlink:href="#DejaVuSans-34" x="190.869141"/>
      </g>
     </g>
    </g>
    <g id="xtick_4">
     <g id="line2d_4">
      <g>
       <use xlink:href="#m87d8f7077f" x="212.890435" y="239.758125" style="stroke: #000000; stroke-width: 0.8"/>
      </g>
     </g>
     <g id="text_4">
      <!-- 2016 -->
      <g transform="translate(200.165435 254.356562)scale(0.1 -0.1)">
       <defs>
        <path id="DejaVuSans-36" d="M 2113 2584 
Q 1688 2584 1439 2293 
Q 1191 2003 1191 1497 
Q 1191 994 1439 701 
Q 1688 409 2113 409 
Q 2538 409 2786 701 
Q 3034 994 3034 1497 
Q 3034 2003 2786 2293 
Q 2538 2584 2113 2584 
z
M 3366 4563 
L 3366 3988 
Q 3128 4100 2886 4159 
Q 2644 4219 2406 4219 
Q 1781 4219 1451 3797 
Q 1122 3375 1075 2522 
Q 1259 2794 1537 2939 
Q 1816 3084 2150 3084 
Q 2853 3084 3261 2657 
Q 3669 2231 3669 1497 
Q 3669 778 3244 343 
Q 2819 -91 2113 -91 
Q 1303 -91 875 529 
Q 447 1150 447 2328 
Q 447 3434 972 4092 
Q 1497 4750 2381 4750 
Q 2619 4750 2861 4703 
Q 3103 4656 3366 4563 
z
" transform="scale(0.015625)"/>
       </defs>
       <use xlink:href="#DejaVuSans-32"/>
       <use xlink:href="#DejaVuSans-30" x="63.623047"/>
       <use xlink:href="#DejaVuSans-31" x="127.246094"/>
       <use xlink:href="#DejaVuSans-36" x="190.869141"/>
      </g>
     </g>
    </g>
    <g id="xtick_5">
     <g id="line2d_5">
      <g>
       <use xlink:href="#m87d8f7077f" x="265.939986" y="239.758125" style="stroke: #000000; stroke-width: 0.8"/>
      </g>
     </g>
     <g id="text_5">
      <!-- 2018 -->
      <g transform="translate(253.214986 254.356562)scale(0.1 -0.1)">
       <defs>
        <path id="DejaVuSans-38" d="M 2034 2216 
Q 1584 2216 1326 1975 
Q 1069 1734 1069 1313 
Q 1069 891 1326 650 
Q 1584 409 2034 409 
Q 2484 409 2743 651 
Q 3003 894 3003 1313 
Q 3003 1734 2745 1975 
Q 2488 2216 2034 2216 
z
M 1403 2484 
Q 997 2584 770 2862 
Q 544 3141 544 3541 
Q 544 4100 942 4425 
Q 1341 4750 2034 4750 
Q 2731 4750 3128 4425 
Q 3525 4100 3525 3541 
Q 3525 3141 3298 2862 
Q 3072 2584 2669 2484 
Q 3125 2378 3379 2068 
Q 3634 1759 3634 1313 
Q 3634 634 3220 271 
Q 2806 -91 2034 -91 
Q 1263 -91 848 271 
Q 434 634 434 1313 
Q 434 1759 690 2068 
Q 947 2378 1403 2484 
z
M 1172 3481 
Q 1172 3119 1398 2916 
Q 1625 2713 2034 2713 
Q 2441 2713 2670 2916 
Q 2900 3119 2900 3481 
Q 2900 3844 2670 4047 
Q 2441 4250 2034 4250 
Q 1625 4250 1398 4047 
Q 1172 3844 1172 3481 
z
" transform="scale(0.015625)"/>
       </defs>
       <use xlink:href="#DejaVuSans-32"/>
       <use xlink:href="#DejaVuSans-30" x="63.623047"/>
       <use xlink:href="#DejaVuSans-31" x="127.246094"/>
       <use xlink:href="#DejaVuSans-38" x="190.869141"/>
      </g>
     </g>
    </g>
    <g id="xtick_6">
     <g id="line2d_6">
      <g>
       <use xlink:href="#m87d8f7077f" x="318.916966" y="239.758125" style="stroke: #000000; stroke-width: 0.8"/>
      </g>
     </g>
     <g id="text_6">
      <!-- 2020 -->
      <g transform="translate(306.191966 254.356562)scale(0.1 -0.1)">
       <use xlink:href="#DejaVuSans-32"/>
       <use xlink:href="#DejaVuSans-30" x="63.623047"/>
       <use xlink:href="#DejaVuSans-32" x="127.246094"/>
       <use xlink:href="#DejaVuSans-30" x="190.869141"/>
      </g>
     </g>
    </g>
    <g id="xtick_7">
     <g id="line2d_7">
      <g>
       <use xlink:href="#m87d8f7077f" x="371.966518" y="239.758125" style="stroke: #000000; stroke-width: 0.8"/>
      </g>
     </g>
     <g id="text_7">
      <!-- 2022 -->
      <g transform="translate(359.241518 254.356562)scale(0.1 -0.1)">
       <use xlink:href="#DejaVuSans-32"/>
       <use xlink:href="#DejaVuSans-30" x="63.623047"/>
       <use xlink:href="#DejaVuSans-32" x="127.246094"/>
       <use xlink:href="#DejaVuSans-32" x="190.869141"/>
      </g>
     </g>
    </g>
    <g id="text_8">
     <!-- Time Scale -->
     <g transform="translate(193.452344 268.034687)scale(0.1 -0.1)">
      <defs>
       <path id="DejaVuSans-54" d="M -19 4666 
L 3928 4666 
L 3928 4134 
L 2272 4134 
L 2272 0 
L 1638 0 
L 1638 4134 
L -19 4134 
L -19 4666 
z
" transform="scale(0.015625)"/>
       <path id="DejaVuSans-69" d="M 603 3500 
L 1178 3500 
L 1178 0 
L 603 0 
L 603 3500 
z
M 603 4863 
L 1178 4863 
L 1178 4134 
L 603 4134 
L 603 4863 
z
" transform="scale(0.015625)"/>
       <path id="DejaVuSans-6d" d="M 3328 2828 
Q 3544 3216 3844 3400 
Q 4144 3584 4550 3584 
Q 5097 3584 5394 3201 
Q 5691 2819 5691 2113 
L 5691 0 
L 5113 0 
L 5113 2094 
Q 5113 2597 4934 2840 
Q 4756 3084 4391 3084 
Q 3944 3084 3684 2787 
Q 3425 2491 3425 1978 
L 3425 0 
L 2847 0 
L 2847 2094 
Q 2847 2600 2669 2842 
Q 2491 3084 2119 3084 
Q 1678 3084 1418 2786 
Q 1159 2488 1159 1978 
L 1159 0 
L 581 0 
L 581 3500 
L 1159 3500 
L 1159 2956 
Q 1356 3278 1631 3431 
Q 1906 3584 2284 3584 
Q 2666 3584 2933 3390 
Q 3200 3197 3328 2828 
z
" transform="scale(0.015625)"/>
       <path id="DejaVuSans-65" d="M 3597 1894 
L 3597 1613 
L 953 1613 
Q 991 1019 1311 708 
Q 1631 397 2203 397 
Q 2534 397 2845 478 
Q 3156 559 3463 722 
L 3463 178 
Q 3153 47 2828 -22 
Q 2503 -91 2169 -91 
Q 1331 -91 842 396 
Q 353 884 353 1716 
Q 353 2575 817 3079 
Q 1281 3584 2069 3584 
Q 2775 3584 3186 3129 
Q 3597 2675 3597 1894 
z
M 3022 2063 
Q 3016 2534 2758 2815 
Q 2500 3097 2075 3097 
Q 1594 3097 1305 2825 
Q 1016 2553 972 2059 
L 3022 2063 
z
" transform="scale(0.015625)"/>
       <path id="DejaVuSans-20" transform="scale(0.015625)"/>
       <path id="DejaVuSans-53" d="M 3425 4513 
L 3425 3897 
Q 3066 4069 2747 4153 
Q 2428 4238 2131 4238 
Q 1616 4238 1336 4038 
Q 1056 3838 1056 3469 
Q 1056 3159 1242 3001 
Q 1428 2844 1947 2747 
L 2328 2669 
Q 3034 2534 3370 2195 
Q 3706 1856 3706 1288 
Q 3706 609 3251 259 
Q 2797 -91 1919 -91 
Q 1588 -91 1214 -16 
Q 841 59 441 206 
L 441 856 
Q 825 641 1194 531 
Q 1563 422 1919 422 
Q 2459 422 2753 634 
Q 3047 847 3047 1241 
Q 3047 1584 2836 1778 
Q 2625 1972 2144 2069 
L 1759 2144 
Q 1053 2284 737 2584 
Q 422 2884 422 3419 
Q 422 4038 858 4394 
Q 1294 4750 2059 4750 
Q 2388 4750 2728 4690 
Q 3069 4631 3425 4513 
z
" transform="scale(0.015625)"/>
       <path id="DejaVuSans-63" d="M 3122 3366 
L 3122 2828 
Q 2878 2963 2633 3030 
Q 2388 3097 2138 3097 
Q 1578 3097 1268 2742 
Q 959 2388 959 1747 
Q 959 1106 1268 751 
Q 1578 397 2138 397 
Q 2388 397 2633 464 
Q 2878 531 3122 666 
L 3122 134 
Q 2881 22 2623 -34 
Q 2366 -91 2075 -91 
Q 1284 -91 818 406 
Q 353 903 353 1747 
Q 353 2603 823 3093 
Q 1294 3584 2113 3584 
Q 2378 3584 2631 3529 
Q 2884 3475 3122 3366 
z
" transform="scale(0.015625)"/>
       <path id="DejaVuSans-61" d="M 2194 1759 
Q 1497 1759 1228 1600 
Q 959 1441 959 1056 
Q 959 750 1161 570 
Q 1363 391 1709 391 
Q 2188 391 2477 730 
Q 2766 1069 2766 1631 
L 2766 1759 
L 2194 1759 
z
M 3341 1997 
L 3341 0 
L 2766 0 
L 2766 531 
Q 2569 213 2275 61 
Q 1981 -91 1556 -91 
Q 1019 -91 701 211 
Q 384 513 384 1019 
Q 384 1609 779 1909 
Q 1175 2209 1959 2209 
L 2766 2209 
L 2766 2266 
Q 2766 2663 2505 2880 
Q 2244 3097 1772 3097 
Q 1472 3097 1187 3025 
Q 903 2953 641 2809 
L 641 3341 
Q 956 3463 1253 3523 
Q 1550 3584 1831 3584 
Q 2591 3584 2966 3190 
Q 3341 2797 3341 1997 
z
" transform="scale(0.015625)"/>
       <path id="DejaVuSans-6c" d="M 603 4863 
L 1178 4863 
L 1178 0 
L 603 0 
L 603 4863 
z
" transform="scale(0.015625)"/>
      </defs>
      <use xlink:href="#DejaVuSans-54"/>
      <use xlink:href="#DejaVuSans-69" x="57.958984"/>
      <use xlink:href="#DejaVuSans-6d" x="85.742188"/>
      <use xlink:href="#DejaVuSans-65" x="183.154297"/>
      <use xlink:href="#DejaVuSans-20" x="244.677734"/>
      <use xlink:href="#DejaVuSans-53" x="276.464844"/>
      <use xlink:href="#DejaVuSans-63" x="339.941406"/>
      <use xlink:href="#DejaVuSans-61" x="394.921875"/>
      <use xlink:href="#DejaVuSans-6c" x="456.201172"/>
      <use xlink:href="#DejaVuSans-65" x="483.984375"/>
     </g>
    </g>
   </g>
   <g id="matplotlib.axis_2">
    <g id="ytick_1">
     <g id="line2d_8">
      <defs>
       <path id="mfcd5d9ceb3" d="M 0 0 
L -3.5 0 
" style="stroke: #000000; stroke-width: 0.8"/>
      </defs>
      <g>
       <use xlink:href="#mfcd5d9ceb3" x="53.328125" y="230.475582" style="stroke: #000000; stroke-width: 0.8"/>
      </g>
     </g>
     <g id="text_9">
      <!-- 0 -->
      <g transform="translate(39.965625 234.274801)scale(0.1 -0.1)">
       <use xlink:href="#DejaVuSans-30"/>
      </g>
     </g>
    </g>
    <g id="ytick_2">
     <g id="line2d_9">
      <g>
       <use xlink:href="#mfcd5d9ceb3" x="53.328125" y="197.664815" style="stroke: #000000; stroke-width: 0.8"/>
      </g>
     </g>
     <g id="text_10">
      <!-- 200 -->
      <g transform="translate(27.240625 201.464033)scale(0.1 -0.1)">
       <use xlink:href="#DejaVuSans-32"/>
       <use xlink:href="#DejaVuSans-30" x="63.623047"/>
       <use xlink:href="#DejaVuSans-30" x="127.246094"/>
      </g>
     </g>
    </g>
    <g id="ytick_3">
     <g id="line2d_10">
      <g>
       <use xlink:href="#mfcd5d9ceb3" x="53.328125" y="164.854047" style="stroke: #000000; stroke-width: 0.8"/>
      </g>
     </g>
     <g id="text_11">
      <!-- 400 -->
      <g transform="translate(27.240625 168.653266)scale(0.1 -0.1)">
       <use xlink:href="#DejaVuSans-34"/>
       <use xlink:href="#DejaVuSans-30" x="63.623047"/>
       <use xlink:href="#DejaVuSans-30" x="127.246094"/>
      </g>
     </g>
    </g>
    <g id="ytick_4">
     <g id="line2d_11">
      <g>
       <use xlink:href="#mfcd5d9ceb3" x="53.328125" y="132.04328" style="stroke: #000000; stroke-width: 0.8"/>
      </g>
     </g>
     <g id="text_12">
      <!-- 600 -->
      <g transform="translate(27.240625 135.842499)scale(0.1 -0.1)">
       <use xlink:href="#DejaVuSans-36"/>
       <use xlink:href="#DejaVuSans-30" x="63.623047"/>
       <use xlink:href="#DejaVuSans-30" x="127.246094"/>
      </g>
     </g>
    </g>
    <g id="ytick_5">
     <g id="line2d_12">
      <g>
       <use xlink:href="#mfcd5d9ceb3" x="53.328125" y="99.232513" style="stroke: #000000; stroke-width: 0.8"/>
      </g>
     </g>
     <g id="text_13">
      <!-- 800 -->
      <g transform="translate(27.240625 103.031732)scale(0.1 -0.1)">
       <use xlink:href="#DejaVuSans-38"/>
       <use xlink:href="#DejaVuSans-30" x="63.623047"/>
       <use xlink:href="#DejaVuSans-30" x="127.246094"/>
      </g>
     </g>
    </g>
    <g id="ytick_6">
     <g id="line2d_13">
      <g>
       <use xlink:href="#mfcd5d9ceb3" x="53.328125" y="66.421746" style="stroke: #000000; stroke-width: 0.8"/>
      </g>
     </g>
     <g id="text_14">
      <!-- 1000 -->
      <g transform="translate(20.878125 70.220964)scale(0.1 -0.1)">
       <use xlink:href="#DejaVuSans-31"/>
       <use xlink:href="#DejaVuSans-30" x="63.623047"/>
       <use xlink:href="#DejaVuSans-30" x="127.246094"/>
       <use xlink:href="#DejaVuSans-30" x="190.869141"/>
      </g>
     </g>
    </g>
    <g id="ytick_7">
     <g id="line2d_14">
      <g>
       <use xlink:href="#mfcd5d9ceb3" x="53.328125" y="33.610978" style="stroke: #000000; stroke-width: 0.8"/>
      </g>
     </g>
     <g id="text_15">
      <!-- 1200 -->
      <g transform="translate(20.878125 37.410197)scale(0.1 -0.1)">
       <use xlink:href="#DejaVuSans-31"/>
       <use xlink:href="#DejaVuSans-32" x="63.623047"/>
       <use xlink:href="#DejaVuSans-30" x="127.246094"/>
       <use xlink:href="#DejaVuSans-30" x="190.869141"/>
      </g>
     </g>
    </g>
    <g id="text_16">
     <!-- Scaled USD -->
     <g transform="translate(14.798438 159.938125)rotate(-90)scale(0.1 -0.1)">
      <defs>
       <path id="DejaVuSans-64" d="M 2906 2969 
L 2906 4863 
L 3481 4863 
L 3481 0 
L 2906 0 
L 2906 525 
Q 2725 213 2448 61 
Q 2172 -91 1784 -91 
Q 1150 -91 751 415 
Q 353 922 353 1747 
Q 353 2572 751 3078 
Q 1150 3584 1784 3584 
Q 2172 3584 2448 3432 
Q 2725 3281 2906 2969 
z
M 947 1747 
Q 947 1113 1208 752 
Q 1469 391 1925 391 
Q 2381 391 2643 752 
Q 2906 1113 2906 1747 
Q 2906 2381 2643 2742 
Q 2381 3103 1925 3103 
Q 1469 3103 1208 2742 
Q 947 2381 947 1747 
z
" transform="scale(0.015625)"/>
       <path id="DejaVuSans-55" d="M 556 4666 
L 1191 4666 
L 1191 1831 
Q 1191 1081 1462 751 
Q 1734 422 2344 422 
Q 2950 422 3222 751 
Q 3494 1081 3494 1831 
L 3494 4666 
L 4128 4666 
L 4128 1753 
Q 4128 841 3676 375 
Q 3225 -91 2344 -91 
Q 1459 -91 1007 375 
Q 556 841 556 1753 
L 556 4666 
z
" transform="scale(0.015625)"/>
       <path id="DejaVuSans-44" d="M 1259 4147 
L 1259 519 
L 2022 519 
Q 2988 519 3436 956 
Q 3884 1394 3884 2338 
Q 3884 3275 3436 3711 
Q 2988 4147 2022 4147 
L 1259 4147 
z
M 628 4666 
L 1925 4666 
Q 3281 4666 3915 4102 
Q 4550 3538 4550 2338 
Q 4550 1131 3912 565 
Q 3275 0 1925 0 
L 628 0 
L 628 4666 
z
" transform="scale(0.015625)"/>
      </defs>
      <use xlink:href="#DejaVuSans-53"/>
      <use xlink:href="#DejaVuSans-63" x="63.476562"/>
      <use xlink:href="#DejaVuSans-61" x="118.457031"/>
      <use xlink:href="#DejaVuSans-6c" x="179.736328"/>
      <use xlink:href="#DejaVuSans-65" x="207.519531"/>
      <use xlink:href="#DejaVuSans-64" x="269.042969"/>
      <use xlink:href="#DejaVuSans-20" x="332.519531"/>
      <use xlink:href="#DejaVuSans-55" x="364.306641"/>
      <use xlink:href="#DejaVuSans-53" x="437.5"/>
      <use xlink:href="#DejaVuSans-44" x="500.976562"/>
     </g>
    </g>
   </g>
   <g id="line2d_15">
    <path d="M 68.546307 229.786556 
L 70.142873 229.874489 
L 74.206861 229.805258 
L 76.746853 229.496509 
L 79.722272 229.488306 
L 82.842834 229.705841 
L 83.20569 229.714044 
L 85.092542 229.657281 
L 86.689108 229.690748 
L 87.342249 229.581817 
L 88.213104 229.650063 
L 88.938816 229.570005 
L 91.841664 229.585754 
L 93.873658 229.525382 
L 98.881071 229.685499 
L 105.049623 229.353782 
L 105.48505 229.509305 
L 106.64619 229.532929 
L 107.734758 229.727825 
L 110.565035 229.34361 
L 114.193595 229.389874 
L 118.838152 229.511273 
L 119.636436 229.389217 
L 123.264996 229.510289 
L 123.410138 229.481416 
L 125.369561 229.547693 
L 128.562694 229.577223 
L 131.030115 229.370187 
L 135.964957 229.224507 
L 136.037528 229.190384 
L 137.924379 229.308175 
L 138.57752 229.196618 
L 139.15809 229.294066 
L 140.536943 229.146746 
L 142.496365 228.523341 
L 142.641508 228.645069 
L 143.004364 227.594797 
L 145.326642 227.184662 
L 148.156919 226.448388 
L 152.293478 225.021776 
L 152.438621 224.458415 
L 152.656334 224.533224 
L 152.801477 224.397715 
L 153.817473 224.93778 
L 154.906042 224.794397 
L 156.430037 225.96082 
L 158.752315 225.621557 
L 160.784309 225.90373 
L 161.43745 224.616891 
L 165.356295 222.798518 
L 167.896287 223.769717 
L 168.912284 223.368442 
L 171.66999 223.797935 
L 173.048843 222.610185 
L 176.604832 222.051089 
L 180.160821 221.958891 
L 182.192815 222.636105 
L 183.789381 222.324075 
L 185.313377 223.72247 
L 186.982514 223.694909 
L 189.377364 223.49345 
L 190.248219 223.672598 
L 192.570497 224.40559 
L 193.36878 223.806793 
L 194.094493 223.690643 
L 196.126486 222.31095 
L 196.3442 222.313904 
L 199.174477 221.712154 
L 201.424184 222.17413 
L 202.222468 222.518643 
L 203.020751 221.921158 
L 203.60132 223.098409 
L 204.617317 222.308654 
L 205.488172 221.806977 
L 205.705885 221.842413 
L 207.15731 223.359583 
L 207.81045 223.615178 
L 210.2053 222.940917 
L 213.253291 223.288712 
L 213.398433 223.55251 
L 213.616147 223.655864 
L 214.41443 223.829761 
L 217.462421 223.879305 
L 219.929842 222.036653 
L 222.469834 223.674566 
L 223.41326 223.270994 
L 223.993829 223.291336 
L 224.501828 222.950104 
L 225.372682 223.270009 
L 228.928671 222.959291 
L 230.525238 223.519371 
L 231.033236 223.857322 
L 233.6458 223.905554 
L 236.258363 224.404933 
L 236.984075 224.040734 
L 237.056646 224.255645 
L 240.685207 222.654807 
L 241.120634 222.121632 
L 242.064059 222.01795 
L 245.765191 221.374531 
L 248.958324 219.818317 
L 249.466322 220.277011 
L 249.90175 220.080146 
L 250.917747 218.335598 
L 251.788601 218.262102 
L 252.006315 217.894293 
L 253.240025 220.105739 
L 253.312596 219.739243 
L 257.449155 219.171289 
L 258.102296 218.013725 
L 258.97315 219.288095 
L 259.916576 218.808402 
L 260.932573 219.407197 
L 261.658285 220.432534 
L 264.198277 220.135925 
L 264.923989 219.356997 
L 269.060548 219.856049 
L 270.076545 218.959331 
L 270.802257 219.740883 
L 271.01997 219.139134 
L 271.237684 219.792396 
L 271.673111 220.08999 
L 273.124535 220.478141 
L 273.850248 220.952585 
L 276.898238 220.900744 
L 277.62395 219.579126 
L 277.841664 218.738514 
L 279.365659 220.331805 
L 279.946229 220.013213 
L 282.41365 219.469211 
L 283.937645 221.257397 
L 284.953642 220.687146 
L 285.389069 220.318025 
L 287.783919 219.488896 
L 288.43706 219.052185 
L 289.598199 219.78485 
L 292.06562 220.103114 
L 292.573619 220.62054 
L 292.936475 219.472491 
L 293.517044 219.121416 
L 294.025043 221.039533 
L 296.492464 220.702567 
L 296.637606 219.980073 
L 297.073033 221.411935 
L 299.105027 220.901072 
L 299.250169 221.453933 
L 301.645019 222.442194 
L 302.588445 223.74675 
L 304.69301 223.04624 
L 304.765581 223.269681 
L 305.563864 223.02196 
L 311.659846 222.560641 
L 311.732417 223.151891 
L 313.256412 222.014013 
L 314.92555 219.466257 
L 315.50612 218.920614 
L 316.957544 219.635889 
L 317.3204 219.029874 
L 318.481539 216.336109 
L 320.586104 211.943405 
L 321.456958 206.369511 
L 322.835811 203.118293 
L 323.634095 207.393863 
L 325.085519 213.146246 
L 325.666088 214.726086 
L 326.609514 206.024669 
L 328.568937 204.523577 
L 330.092932 201.504988 
L 332.705495 184.728187 
L 333.068351 180.708213 
L 335.027774 183.931214 
L 336.188913 159.828422 
L 337.640337 156.690727 
L 338.801477 156.953214 
L 339.091761 160.641146 
L 339.236904 160.703487 
L 339.744902 154.797549 
L 341.922038 163.45959 
L 342.430037 150.153186 
L 342.792893 136.30868 
L 344.462031 116.458166 
L 344.679744 123.863558 
L 345.768312 109.877969 
L 347.510021 100.293936 
L 347.800306 87.291038 
L 349.034017 102.300322 
L 349.396873 108.744351 
L 354.839713 127.27916 
L 356.653993 132.199133 
L 357.524848 131.244339 
L 360.137411 123.961986 
L 360.645409 119.35372 
L 363.983685 108.583581 
L 366.160821 97.414793 
L 367.249389 53.783032 
L 367.539674 32.201761 
L 367.612245 38.204486 
L 369.063669 40.686621 
L 370.805378 78.410803 
L 372.329374 55.80747 
L 372.909943 58.283037 
L 372.909943 58.283037 
" clip-path="url(#pb6cd9a967f)" style="fill: none; stroke: #1f77b4; stroke-width: 1.5; stroke-linecap: square"/>
   </g>
   <g id="line2d_16">
    <path d="M 68.546307 229.544818 
L 70.142873 229.584132 
L 74.206861 229.566021 
L 76.746853 229.391461 
L 81.681695 229.458437 
L 82.842834 229.524292 
L 83.20569 229.4648 
L 112.234173 229.362451 
L 114.193595 229.384576 
L 118.838152 229.434083 
L 119.636436 229.362646 
L 123.410138 229.437221 
L 140.536943 229.233851 
L 142.496365 228.840772 
L 142.568937 228.649743 
L 142.641508 228.785959 
L 143.004364 227.690259 
L 145.326642 227.398807 
L 148.156919 226.458742 
L 151.712908 224.997239 
L 152.293478 224.897169 
L 152.438621 224.437298 
L 152.801477 224.356366 
L 153.817473 224.840999 
L 154.906042 224.861348 
L 156.430037 225.916167 
L 158.752315 225.517677 
L 160.784309 225.711557 
L 161.43745 224.532766 
L 165.356295 222.759783 
L 167.896287 223.832772 
L 168.912284 223.431538 
L 171.452276 223.580928 
L 171.66999 223.637285 
L 173.048843 222.52984 
L 176.604832 222.066831 
L 180.160821 221.974604 
L 182.192815 222.579492 
L 183.789381 222.305445 
L 185.313377 223.876945 
L 186.982514 223.580039 
L 190.248219 223.453389 
L 192.570497 224.282908 
L 193.36878 223.720353 
L 194.094493 223.640629 
L 196.3442 222.31427 
L 199.174477 221.673669 
L 201.424184 221.991384 
L 202.222468 222.530195 
L 203.020751 222.024451 
L 203.60132 223.124498 
L 204.617317 222.202008 
L 205.488172 221.818967 
L 205.705885 221.931386 
L 207.15731 223.234279 
L 207.81045 223.444913 
L 210.2053 223.038726 
L 213.398433 223.32027 
L 213.616147 223.524081 
L 214.41443 223.725085 
L 217.462421 223.817712 
L 219.929842 221.871055 
L 222.469834 223.558322 
L 223.41326 223.225204 
L 223.993829 223.221741 
L 224.501828 222.834397 
L 225.372682 223.175757 
L 229.43667 223.016824 
L 231.033236 223.690049 
L 233.6458 223.825038 
L 235.605222 224.21927 
L 236.258363 224.154628 
L 236.984075 223.915546 
L 237.056646 224.017577 
L 240.685207 222.644168 
L 241.120634 222.190976 
L 242.064059 222.124464 
L 245.765191 221.347242 
L 248.232612 219.864209 
L 248.958324 219.79109 
L 249.466322 220.154236 
L 249.90175 220.201677 
L 250.917747 218.403264 
L 251.788601 218.11376 
L 252.006315 217.830208 
L 252.441742 218.488912 
L 253.240025 220.255681 
L 253.312596 219.935875 
L 257.449155 219.048636 
L 258.102296 218.061761 
L 258.97315 219.055561 
L 259.916576 218.928611 
L 260.932573 219.288927 
L 261.368 219.927122 
L 261.658285 220.60069 
L 264.198277 220.13321 
L 264.923989 219.187682 
L 269.060548 220.009898 
L 270.076545 218.764077 
L 270.802257 219.762818 
L 271.01997 219.410448 
L 271.237684 219.699944 
L 271.673111 220.09028 
L 273.850248 220.783507 
L 276.898238 221.023624 
L 277.62395 219.672776 
L 277.841664 218.858577 
L 278.639947 219.517103 
L 279.365659 220.401286 
L 279.946229 220.12555 
L 282.41365 219.328278 
L 282.776506 220.072605 
L 283.937645 221.119567 
L 284.445644 220.953771 
L 285.389069 220.38748 
L 288.43706 219.078571 
L 289.598199 219.544611 
L 292.06562 220.194133 
L 292.573619 220.488782 
L 292.936475 219.400496 
L 293.444473 219.241185 
L 293.517044 219.021157 
L 294.025043 221.008217 
L 296.492464 220.786932 
L 296.637606 220.086588 
L 297.073033 221.36539 
L 299.105027 220.913185 
L 299.250169 221.598695 
L 301.645019 222.34588 
L 302.588445 223.846809 
L 304.69301 223.071577 
L 304.765581 223.188182 
L 305.563864 222.916843 
L 311.659846 222.508602 
L 311.732417 222.82916 
L 313.183841 222.208062 
L 313.256412 222.030803 
L 314.92555 219.457605 
L 315.50612 218.913571 
L 316.957544 219.568618 
L 317.3204 219.119258 
L 318.046112 217.02079 
L 318.481539 216.284105 
L 320.586104 211.885108 
L 321.021531 209.507296 
L 321.456958 204.935579 
L 322.835811 202.660594 
L 323.634095 207.561802 
L 325.085519 212.795871 
L 325.666088 214.167633 
L 326.609514 206.314794 
L 328.714079 204.27818 
L 328.931793 203.485204 
L 330.092932 201.288606 
L 332.705495 184.996327 
L 333.068351 181.179552 
L 335.027774 183.830247 
L 336.188913 160.36814 
L 337.640337 156.118721 
L 338.801477 157.374048 
L 339.236904 160.81709 
L 339.744902 154.692057 
L 341.922038 163.76672 
L 342.792893 136.969571 
L 344.462031 119.79903 
L 344.679744 121.326361 
L 345.768312 109.611842 
L 347.510021 98.384507 
L 347.727735 96.153129 
L 347.800306 88.824366 
L 349.034017 101.607999 
L 349.396873 111.343409 
L 354.839713 124.118881 
L 356.653993 132.522785 
L 357.524848 130.704325 
L 360.137411 122.581878 
L 360.645409 119.516402 
L 363.983685 111.323783 
L 366.160821 97.582021 
L 367.249389 56.845623 
L 367.612245 37.825852 
L 369.063669 40.638999 
L 370.805378 76.73651 
L 372.329374 60.700368 
L 372.909943 61.862222 
L 372.909943 61.862222 
" clip-path="url(#pb6cd9a967f)" style="fill: none; stroke: #ff7f0e; stroke-width: 1.5; stroke-linecap: square"/>
   </g>
   <g id="patch_3">
    <path d="M 53.328125 239.758125 
L 53.328125 22.318125 
" style="fill: none; stroke: #000000; stroke-width: 0.8; stroke-linejoin: miter; stroke-linecap: square"/>
   </g>
   <g id="patch_4">
    <path d="M 388.128125 239.758125 
L 388.128125 22.318125 
" style="fill: none; stroke: #000000; stroke-width: 0.8; stroke-linejoin: miter; stroke-linecap: square"/>
   </g>
   <g id="patch_5">
    <path d="M 53.328125 239.758125 
L 388.128125 239.758125 
" style="fill: none; stroke: #000000; stroke-width: 0.8; stroke-linejoin: miter; stroke-linecap: square"/>
   </g>
   <g id="patch_6">
    <path d="M 53.328125 22.318125 
L 388.128125 22.318125 
" style="fill: none; stroke: #000000; stroke-width: 0.8; stroke-linejoin: miter; stroke-linecap: square"/>
   </g>
   <g id="text_17">
    <!-- Prediction by LSTM -->
    <g transform="translate(163.75625 16.318125)scale(0.12 -0.12)">
     <defs>
      <path id="DejaVuSans-50" d="M 1259 4147 
L 1259 2394 
L 2053 2394 
Q 2494 2394 2734 2622 
Q 2975 2850 2975 3272 
Q 2975 3691 2734 3919 
Q 2494 4147 2053 4147 
L 1259 4147 
z
M 628 4666 
L 2053 4666 
Q 2838 4666 3239 4311 
Q 3641 3956 3641 3272 
Q 3641 2581 3239 2228 
Q 2838 1875 2053 1875 
L 1259 1875 
L 1259 0 
L 628 0 
L 628 4666 
z
" transform="scale(0.015625)"/>
      <path id="DejaVuSans-72" d="M 2631 2963 
Q 2534 3019 2420 3045 
Q 2306 3072 2169 3072 
Q 1681 3072 1420 2755 
Q 1159 2438 1159 1844 
L 1159 0 
L 581 0 
L 581 3500 
L 1159 3500 
L 1159 2956 
Q 1341 3275 1631 3429 
Q 1922 3584 2338 3584 
Q 2397 3584 2469 3576 
Q 2541 3569 2628 3553 
L 2631 2963 
z
" transform="scale(0.015625)"/>
      <path id="DejaVuSans-74" d="M 1172 4494 
L 1172 3500 
L 2356 3500 
L 2356 3053 
L 1172 3053 
L 1172 1153 
Q 1172 725 1289 603 
Q 1406 481 1766 481 
L 2356 481 
L 2356 0 
L 1766 0 
Q 1100 0 847 248 
Q 594 497 594 1153 
L 594 3053 
L 172 3053 
L 172 3500 
L 594 3500 
L 594 4494 
L 1172 4494 
z
" transform="scale(0.015625)"/>
      <path id="DejaVuSans-6f" d="M 1959 3097 
Q 1497 3097 1228 2736 
Q 959 2375 959 1747 
Q 959 1119 1226 758 
Q 1494 397 1959 397 
Q 2419 397 2687 759 
Q 2956 1122 2956 1747 
Q 2956 2369 2687 2733 
Q 2419 3097 1959 3097 
z
M 1959 3584 
Q 2709 3584 3137 3096 
Q 3566 2609 3566 1747 
Q 3566 888 3137 398 
Q 2709 -91 1959 -91 
Q 1206 -91 779 398 
Q 353 888 353 1747 
Q 353 2609 779 3096 
Q 1206 3584 1959 3584 
z
" transform="scale(0.015625)"/>
      <path id="DejaVuSans-6e" d="M 3513 2113 
L 3513 0 
L 2938 0 
L 2938 2094 
Q 2938 2591 2744 2837 
Q 2550 3084 2163 3084 
Q 1697 3084 1428 2787 
Q 1159 2491 1159 1978 
L 1159 0 
L 581 0 
L 581 3500 
L 1159 3500 
L 1159 2956 
Q 1366 3272 1645 3428 
Q 1925 3584 2291 3584 
Q 2894 3584 3203 3211 
Q 3513 2838 3513 2113 
z
" transform="scale(0.015625)"/>
      <path id="DejaVuSans-62" d="M 3116 1747 
Q 3116 2381 2855 2742 
Q 2594 3103 2138 3103 
Q 1681 3103 1420 2742 
Q 1159 2381 1159 1747 
Q 1159 1113 1420 752 
Q 1681 391 2138 391 
Q 2594 391 2855 752 
Q 3116 1113 3116 1747 
z
M 1159 2969 
Q 1341 3281 1617 3432 
Q 1894 3584 2278 3584 
Q 2916 3584 3314 3078 
Q 3713 2572 3713 1747 
Q 3713 922 3314 415 
Q 2916 -91 2278 -91 
Q 1894 -91 1617 61 
Q 1341 213 1159 525 
L 1159 0 
L 581 0 
L 581 4863 
L 1159 4863 
L 1159 2969 
z
" transform="scale(0.015625)"/>
      <path id="DejaVuSans-79" d="M 2059 -325 
Q 1816 -950 1584 -1140 
Q 1353 -1331 966 -1331 
L 506 -1331 
L 506 -850 
L 844 -850 
Q 1081 -850 1212 -737 
Q 1344 -625 1503 -206 
L 1606 56 
L 191 3500 
L 800 3500 
L 1894 763 
L 2988 3500 
L 3597 3500 
L 2059 -325 
z
" transform="scale(0.015625)"/>
      <path id="DejaVuSans-4c" d="M 628 4666 
L 1259 4666 
L 1259 531 
L 3531 531 
L 3531 0 
L 628 0 
L 628 4666 
z
" transform="scale(0.015625)"/>
      <path id="DejaVuSans-4d" d="M 628 4666 
L 1569 4666 
L 2759 1491 
L 3956 4666 
L 4897 4666 
L 4897 0 
L 4281 0 
L 4281 4097 
L 3078 897 
L 2444 897 
L 1241 4097 
L 1241 0 
L 628 0 
L 628 4666 
z
" transform="scale(0.015625)"/>
     </defs>
     <use xlink:href="#DejaVuSans-50"/>
     <use xlink:href="#DejaVuSans-72" x="58.552734"/>
     <use xlink:href="#DejaVuSans-65" x="97.416016"/>
     <use xlink:href="#DejaVuSans-64" x="158.939453"/>
     <use xlink:href="#DejaVuSans-69" x="222.416016"/>
     <use xlink:href="#DejaVuSans-63" x="250.199219"/>
     <use xlink:href="#DejaVuSans-74" x="305.179688"/>
     <use xlink:href="#DejaVuSans-69" x="344.388672"/>
     <use xlink:href="#DejaVuSans-6f" x="372.171875"/>
     <use xlink:href="#DejaVuSans-6e" x="433.353516"/>
     <use xlink:href="#DejaVuSans-20" x="496.732422"/>
     <use xlink:href="#DejaVuSans-62" x="528.519531"/>
     <use xlink:href="#DejaVuSans-79" x="591.996094"/>
     <use xlink:href="#DejaVuSans-20" x="651.175781"/>
     <use xlink:href="#DejaVuSans-4c" x="682.962891"/>
     <use xlink:href="#DejaVuSans-53" x="738.675781"/>
     <use xlink:href="#DejaVuSans-54" x="802.152344"/>
     <use xlink:href="#DejaVuSans-4d" x="863.236328"/>
    </g>
   </g>
   <g id="legend_1">
    <g id="patch_7">
     <path d="M 60.328125 59.674375 
L 149.625 59.674375 
Q 151.625 59.674375 151.625 57.674375 
L 151.625 29.318125 
Q 151.625 27.318125 149.625 27.318125 
L 60.328125 27.318125 
Q 58.328125 27.318125 58.328125 29.318125 
L 58.328125 57.674375 
Q 58.328125 59.674375 60.328125 59.674375 
z
" style="fill: #ffffff; opacity: 0.8; stroke: #cccccc; stroke-linejoin: miter"/>
    </g>
    <g id="line2d_17">
     <path d="M 62.328125 35.416562 
L 72.328125 35.416562 
L 82.328125 35.416562 
" style="fill: none; stroke: #1f77b4; stroke-width: 1.5; stroke-linecap: square"/>
    </g>
    <g id="text_18">
     <!-- True Value -->
     <g transform="translate(90.328125 38.916562)scale(0.1 -0.1)">
      <defs>
       <path id="DejaVuSans-75" d="M 544 1381 
L 544 3500 
L 1119 3500 
L 1119 1403 
Q 1119 906 1312 657 
Q 1506 409 1894 409 
Q 2359 409 2629 706 
Q 2900 1003 2900 1516 
L 2900 3500 
L 3475 3500 
L 3475 0 
L 2900 0 
L 2900 538 
Q 2691 219 2414 64 
Q 2138 -91 1772 -91 
Q 1169 -91 856 284 
Q 544 659 544 1381 
z
M 1991 3584 
L 1991 3584 
z
" transform="scale(0.015625)"/>
       <path id="DejaVuSans-56" d="M 1831 0 
L 50 4666 
L 709 4666 
L 2188 738 
L 3669 4666 
L 4325 4666 
L 2547 0 
L 1831 0 
z
" transform="scale(0.015625)"/>
      </defs>
      <use xlink:href="#DejaVuSans-54"/>
      <use xlink:href="#DejaVuSans-72" x="46.333984"/>
      <use xlink:href="#DejaVuSans-75" x="87.447266"/>
      <use xlink:href="#DejaVuSans-65" x="150.826172"/>
      <use xlink:href="#DejaVuSans-20" x="212.349609"/>
      <use xlink:href="#DejaVuSans-56" x="244.136719"/>
      <use xlink:href="#DejaVuSans-61" x="304.794922"/>
      <use xlink:href="#DejaVuSans-6c" x="366.074219"/>
      <use xlink:href="#DejaVuSans-75" x="393.857422"/>
      <use xlink:href="#DejaVuSans-65" x="457.236328"/>
     </g>
    </g>
    <g id="line2d_18">
     <path d="M 62.328125 50.094687 
L 72.328125 50.094687 
L 82.328125 50.094687 
" style="fill: none; stroke: #ff7f0e; stroke-width: 1.5; stroke-linecap: square"/>
    </g>
    <g id="text_19">
     <!-- LSTM Value -->
     <g transform="translate(90.328125 53.594687)scale(0.1 -0.1)">
      <use xlink:href="#DejaVuSans-4c"/>
      <use xlink:href="#DejaVuSans-53" x="55.712891"/>
      <use xlink:href="#DejaVuSans-54" x="119.189453"/>
      <use xlink:href="#DejaVuSans-4d" x="180.273438"/>
      <use xlink:href="#DejaVuSans-20" x="266.552734"/>
      <use xlink:href="#DejaVuSans-56" x="298.339844"/>
      <use xlink:href="#DejaVuSans-61" x="358.998047"/>
      <use xlink:href="#DejaVuSans-6c" x="420.277344"/>
      <use xlink:href="#DejaVuSans-75" x="448.060547"/>
      <use xlink:href="#DejaVuSans-65" x="511.439453"/>
     </g>
    </g>
   </g>
  </g>
 </g>
 <defs>
  <clipPath id="pb6cd9a967f">
   <rect x="53.328125" y="22.318125" width="334.8" height="217.44"/>
  </clipPath>
 </defs>
</svg>
